<?xml version="1.0" encoding="utf-8"?>
<!-- Generator: Adobe Illustrator 24.0.0, SVG Export Plug-In . SVG Version: 6.00 Build 0)  -->
<svg version="1.1" id="Layer_1" xmlns="http://www.w3.org/2000/svg" xmlns:xlink="http://www.w3.org/1999/xlink" x="0px" y="0px"
	 viewBox="0 0 23.5 23.9" style="enable-background:new 0 0 23.5 23.9;" xml:space="preserve">
<style type="text/css">
	.st0{fill:#59C0E9;}
	.st1{fill:#38F689;}
</style>
<path class="st0" d="M13.8-29l1.9-1.9l-2.3-2.3l-1.9,1.9c-0.9-0.6-1.9-1-3.1-1.3v-2.7l-3.2,0v2.7c-1.1,0.2-2.1,0.7-3.1,1.3l-1.9-1.9
	L-2.1-31l1.9,1.9c-0.6,0.9-1,1.9-1.3,3.1h-2.7v3.2h2.7c0.2,1.1,0.7,2.1,1.3,3.1l-1.9,1.9l2.3,2.3l1.9-1.9c0.9,0.6,1.9,1,3.1,1.3v2.7
	h3.2v-2.7c1.1-0.2,2.1-0.7,3.1-1.3l1.9,1.9l2.3-2.3l-1.9-1.9c0.6-0.9,1-1.9,1.3-3.1h2.7V-26H15C14.8-27.1,14.4-28.1,13.8-29L13.8-29
	z M12-23.8l-5.2,5.2l-0.1-0.1l-0.1,0.1l-5.2-5.2c-0.5-0.5-0.8-1.2-0.8-2s0.3-1.4,0.8-2c0.5-0.5,1.2-0.8,2-0.8s1.4,0.3,2,0.8l1.3,1.3
	l1.3-1.3c0.5-0.5,1.2-0.8,2-0.8c0.7,0,1.4,0.3,2,0.8c0.5,0.5,0.8,1.2,0.8,2S12.6-24.3,12-23.8L12-23.8z"/>
<circle cx="11.7" cy="12.1" r="10.9"/>
<g>
	<path class="st1" d="M22.6,12.1c0-6-4.9-10.9-10.9-10.9S0.7,6.1,0.7,12.1c0,5,3.4,9.3,8.1,10.5v-2.1c0-0.2-0.1-0.4-0.3-0.6
		l-6.1-6.1c-0.9-0.9,0.5-2.4,1.4-1.4L9,17.5c0.3,0.3,0.7,0.3,1.1,0.3C9.4,17.3,9,16.5,9,15.5c0-1.6,1.2-2.8,2.8-2.8
		c1.6,0,2.8,1.3,2.8,2.8c0,0.9-0.4,1.7-1.1,2.2c0.4,0,0.8,0,1.1-0.3l5.1-5.1c0.9-0.9,2.4,0.5,1.4,1.4h0l-6.1,6.1
		c-0.2,0.2-0.3,0.4-0.3,0.6v2C19.2,21.3,22.6,17.1,22.6,12.1z"/>
</g>
</svg>
