<?xml version="1.0" encoding="utf-8"?>
<!-- Generator: Adobe Illustrator 24.0.1, SVG Export Plug-In . SVG Version: 6.00 Build 0)  -->
<svg version="1.1" id="Layer_1" xmlns="http://www.w3.org/2000/svg" xmlns:xlink="http://www.w3.org/1999/xlink" x="0px" y="0px"
	 viewBox="0 0 23.5 23.9" style="enable-background:new 0 0 23.5 23.9;" xml:space="preserve">
<style type="text/css">
	.st0{fill:#38F689;}
</style>
<circle cx="11.5" cy="11.5" r="10.5"/>
<g>
	<path class="st0" d="M11.7,0.7c-6,0-11,4.9-11,11c0,6,4.9,11,11,11c6,0,10.9-4.9,10.9-11C22.6,5.6,17.7,0.7,11.7,0.7z M18.2,6.9
		l-3,7.1c-0.2,0.6-0.7,1-1.3,1.3l-7.1,3.1c-1.1,0.5-2.2-0.7-1.8-1.8l3-7.1c0.2-0.6,0.7-1,1.3-1.3l7.1-3.1
		C17.6,4.6,18.7,5.7,18.2,6.9z"/>
	<path class="st0" d="M10.4,10.4c-0.7,0.7-0.7,1.8,0,2.5c0.7,0.7,1.8,0.7,2.5,0c0.7-0.7,0.7-1.8,0-2.5C12.2,9.8,11.1,9.8,10.4,10.4z
		"/>
</g>
</svg>
